<svg xmlns="http://www.w3.org/2000/svg" viewBox="0 0 64 64" shape-rendering="crispEdges"><title>Guide — idle</title><rect width="64" height="64" rx="8" fill="#15252e"/><path d="M9 64V51h8v-7h11v-5h8v5h11v7h8v13z" fill="#e2b55b"/><path d="M26 43h12v8H26z" fill="#e5ad7d"/><path d="M21 14h22v24h-5v5H26v-5h-5z" fill="#e5ad7d"/><path d="M19 24h4v10h-4zm22 0h4v10h-4z" fill="#e5ad7d"/><path d="M25 27h4v3h-4zm10 0h4v3h-4z" fill="#253442"/><path d="M28 35h8" stroke="#392c36" stroke-width="2"/><path d="M18 18V10h28v8h5v5H13v-5z" fill="#e2b55b"/><path d="M19 15h26v4H19z" fill="#835135"/><path d="M27 48l5 5 5-5v16H27z" fill="#835135"/><path d="M43 46h10v15H43z" fill="#e2b55b"/><path d="M13 52h7v12h-7z" fill="#835135"/></svg>
