<svg xmlns="http://www.w3.org/2000/svg" viewBox="0 0 72 36" width="720" height="360"><rect width="72" height="36" fill="#050911"/><rect x=".5" y=".5" width="71" height="35" fill="none" stroke="#397598" stroke-width=".16"/><rect x="6" y="4" width="8" height="7" fill="#294a91" shape-rendering="crispEdges"/><rect x="36" y="4" width="2" height="2" fill="#294a91" shape-rendering="crispEdges"/><rect x="39" y="4" width="5" height="2" fill="#294a91" shape-rendering="crispEdges"/><rect x="36" y="6" width="1" height="2" fill="#294a91" shape-rendering="crispEdges"/><rect x="40" y="6" width="4" height="1" fill="#294a91" shape-rendering="crispEdges"/><rect x="40" y="7" width="3" height="1" fill="#294a91" shape-rendering="crispEdges"/><rect x="16" y="9" width="8" height="8" fill="#294a91" shape-rendering="crispEdges"/><rect x="38" y="9" width="1" height="2" fill="#294a91" shape-rendering="crispEdges"/><rect x="46" y="9" width="8" height="4" fill="#294a91" shape-rendering="crispEdges"/><rect x="41" y="10" width="1" height="1" fill="#294a91" shape-rendering="crispEdges"/><rect x="48" y="13" width="6" height="1" fill="#294a91" shape-rendering="crispEdges"/><rect x="46" y="14" width="8" height="3" fill="#294a91" shape-rendering="crispEdges"/><rect x="26" y="15" width="7" height="3" fill="#294a91" shape-rendering="crispEdges"/><rect x="56" y="15" width="8" height="8" fill="#294a91" shape-rendering="crispEdges"/><rect x="26" y="18" width="6" height="2" fill="#294a91" shape-rendering="crispEdges"/><rect x="26" y="20" width="5" height="1" fill="#294a91" shape-rendering="crispEdges"/><rect x="32" y="20" width="2" height="1" fill="#294a91" shape-rendering="crispEdges"/><rect x="26" y="21" width="8" height="2" fill="#294a91" shape-rendering="crispEdges"/><rect x="6" y="25" width="9" height="1" fill="#294a91" shape-rendering="crispEdges"/><rect x="6" y="26" width="2" height="1" fill="#294a91" shape-rendering="crispEdges"/><rect x="27" y="28" width="9" height="1" fill="#294a91" shape-rendering="crispEdges"/><rect x="42" y="28" width="9" height="1" fill="#294a91" shape-rendering="crispEdges"/><rect x="27" y="29" width="2" height="1" fill="#294a91" shape-rendering="crispEdges"/><rect x="42" y="29" width="2" height="1" fill="#294a91" shape-rendering="crispEdges"/><rect x="38" y="4" width="1" height="2" fill="#f34470" shape-rendering="crispEdges"/><rect x="31" y="6" width="1" height="1" fill="#f34470" shape-rendering="crispEdges"/><rect x="37" y="6" width="3" height="2" fill="#f34470" shape-rendering="crispEdges"/><rect x="45" y="6" width="1" height="1" fill="#f34470" shape-rendering="crispEdges"/><rect x="32" y="7" width="2" height="1" fill="#f34470" shape-rendering="crispEdges"/><rect x="43" y="7" width="2" height="1" fill="#f34470" shape-rendering="crispEdges"/><rect x="32" y="8" width="13" height="1" fill="#f34470" shape-rendering="crispEdges"/><rect x="33" y="9" width="5" height="1" fill="#f34470" shape-rendering="crispEdges"/><rect x="39" y="9" width="5" height="1" fill="#f34470" shape-rendering="crispEdges"/><rect x="33" y="10" width="2" height="1" fill="#f34470" shape-rendering="crispEdges"/><rect x="36" y="10" width="2" height="1" fill="#f34470" shape-rendering="crispEdges"/><rect x="39" y="10" width="2" height="1" fill="#f34470" shape-rendering="crispEdges"/><rect x="42" y="10" width="2" height="1" fill="#f34470" shape-rendering="crispEdges"/><rect x="33" y="11" width="3" height="1" fill="#f34470" shape-rendering="crispEdges"/><rect x="41" y="11" width="3" height="1" fill="#f34470" shape-rendering="crispEdges"/><rect x="31" y="12" width="5" height="1" fill="#f34470" shape-rendering="crispEdges"/><rect x="38" y="12" width="1" height="1" fill="#f34470" shape-rendering="crispEdges"/><rect x="41" y="12" width="5" height="1" fill="#f34470" shape-rendering="crispEdges"/><rect x="29" y="13" width="4" height="1" fill="#f34470" shape-rendering="crispEdges"/><rect x="37" y="13" width="3" height="1" fill="#f34470" shape-rendering="crispEdges"/><rect x="43" y="13" width="5" height="1" fill="#f34470" shape-rendering="crispEdges"/><rect x="31" y="14" width="5" height="1" fill="#f34470" shape-rendering="crispEdges"/><rect x="38" y="14" width="1" height="1" fill="#f34470" shape-rendering="crispEdges"/><rect x="41" y="14" width="5" height="1" fill="#f34470" shape-rendering="crispEdges"/><rect x="33" y="15" width="3" height="1" fill="#f34470" shape-rendering="crispEdges"/><rect x="41" y="15" width="3" height="1" fill="#f34470" shape-rendering="crispEdges"/><rect x="33" y="16" width="2" height="1" fill="#f34470" shape-rendering="crispEdges"/><rect x="36" y="16" width="2" height="1" fill="#f34470" shape-rendering="crispEdges"/><rect x="39" y="16" width="2" height="1" fill="#f34470" shape-rendering="crispEdges"/><rect x="42" y="16" width="2" height="1" fill="#f34470" shape-rendering="crispEdges"/><rect x="33" y="17" width="5" height="1" fill="#f34470" shape-rendering="crispEdges"/><rect x="39" y="17" width="5" height="1" fill="#f34470" shape-rendering="crispEdges"/><rect x="32" y="18" width="13" height="1" fill="#f34470" shape-rendering="crispEdges"/><rect x="32" y="19" width="2" height="1" fill="#f34470" shape-rendering="crispEdges"/><rect x="37" y="19" width="3" height="2" fill="#f34470" shape-rendering="crispEdges"/><rect x="43" y="19" width="2" height="1" fill="#f34470" shape-rendering="crispEdges"/><rect x="31" y="20" width="1" height="1" fill="#f34470" shape-rendering="crispEdges"/><rect x="45" y="20" width="1" height="1" fill="#f34470" shape-rendering="crispEdges"/><rect x="38" y="21" width="1" height="2" fill="#f34470" shape-rendering="crispEdges"/><rect x="6" y="29" width="1" height="1" fill="#f34470" shape-rendering="crispEdges"/><rect x="42" y="32" width="1" height="1" fill="#f34470" shape-rendering="crispEdges"/><rect x="3" y="6" width="2" height="2" fill="#5088a8" shape-rendering="crispEdges"/><rect x="65" y="10" width="3" height="2" fill="#5088a8" shape-rendering="crispEdges"/><rect x="3" y="16" width="3" height="2" fill="#5088a8" shape-rendering="crispEdges"/><rect x="65" y="20" width="2" height="2" fill="#5088a8" shape-rendering="crispEdges"/><rect x="8" y="26" width="7" height="1" fill="#5088a8" shape-rendering="crispEdges"/><rect x="8" y="27" width="1" height="2" fill="#5088a8" shape-rendering="crispEdges"/><rect x="8" y="29" width="7" height="1" fill="#5088a8" shape-rendering="crispEdges"/><rect x="29" y="29" width="7" height="1" fill="#5088a8" shape-rendering="crispEdges"/><rect x="44" y="29" width="7" height="1" fill="#5088a8" shape-rendering="crispEdges"/><rect x="29" y="30" width="1" height="2" fill="#5088a8" shape-rendering="crispEdges"/><rect x="44" y="30" width="1" height="2" fill="#5088a8" shape-rendering="crispEdges"/><rect x="29" y="32" width="7" height="1" fill="#5088a8" shape-rendering="crispEdges"/><rect x="44" y="32" width="7" height="1" fill="#5088a8" shape-rendering="crispEdges"/><rect x="69" y="13" width="1" height="2" fill="#36cbe0" shape-rendering="crispEdges"/><circle cx="31.5" cy="20.5" r="0.48" fill="#fff283"/><circle cx="33.5" cy="13.5" r="0.48" fill="#fff283"/><circle cx="57.5" cy="18.5" r="0.48" fill="#fff283"/><circle cx="39.5" cy="11.5" r="0.48" fill="#fff283"/><circle cx="15.5" cy="24.5" r="0.48" fill="#fff283"/><circle cx="24.5" cy="0.5" r="0.38" fill="#69eeff"/><circle cx="71.5" cy="17.5" r="0.38" fill="#69eeff"/><circle cx="9.5" cy="27.5" r="0.38" fill="#69eeff"/><circle cx="30.5" cy="30.5" r="0.38" fill="#69eeff"/><circle cx="45.5" cy="30.5" r="0.38" fill="#69eeff"/><circle cx="3.5" cy="5.5" r="0.38" fill="#69eeff"/><circle cx="65.5" cy="9.5" r="0.38" fill="#69eeff"/><circle cx="3.5" cy="15.5" r="0.38" fill="#69eeff"/><circle cx="65.5" cy="19.5" r="0.38" fill="#69eeff"/><path d="M36.5 34.9l.5.6-.5.5-.5-.5z" fill="#fff283"/></svg>