<svg xmlns="http://www.w3.org/2000/svg" viewBox="0 0 72 36" width="720" height="360"><rect width="72" height="36" fill="#050911"/><rect x=".5" y=".5" width="71" height="35" fill="none" stroke="#397598" stroke-width=".16"/><rect x="8" y="4" width="11" height="1" fill="#294a91" shape-rendering="crispEdges"/><rect x="26" y="4" width="11" height="1" fill="#294a91" shape-rendering="crispEdges"/><rect x="44" y="4" width="11" height="1" fill="#294a91" shape-rendering="crispEdges"/><rect x="8" y="5" width="8" height="1" fill="#294a91" shape-rendering="crispEdges"/><rect x="28" y="5" width="4" height="1" fill="#294a91" shape-rendering="crispEdges"/><rect x="45" y="5" width="3" height="1" fill="#294a91" shape-rendering="crispEdges"/><rect x="52" y="5" width="2" height="1" fill="#294a91" shape-rendering="crispEdges"/><rect x="8" y="6" width="6" height="2" fill="#294a91" shape-rendering="crispEdges"/><rect x="16" y="6" width="3" height="2" fill="#294a91" shape-rendering="crispEdges"/><rect x="26" y="6" width="2" height="4" fill="#294a91" shape-rendering="crispEdges"/><rect x="29" y="6" width="1" height="4" fill="#294a91" shape-rendering="crispEdges"/><rect x="32" y="6" width="5" height="4" fill="#294a91" shape-rendering="crispEdges"/><rect x="44" y="6" width="2" height="4" fill="#294a91" shape-rendering="crispEdges"/><rect x="48" y="6" width="4" height="2" fill="#294a91" shape-rendering="crispEdges"/><rect x="53" y="6" width="1" height="4" fill="#294a91" shape-rendering="crispEdges"/><rect x="8" y="8" width="8" height="1" fill="#294a91" shape-rendering="crispEdges"/><rect x="8" y="9" width="11" height="1" fill="#294a91" shape-rendering="crispEdges"/><rect x="48" y="9" width="4" height="1" fill="#294a91" shape-rendering="crispEdges"/><rect x="15" y="15" width="3" height="7" fill="#294a91" shape-rendering="crispEdges"/><rect x="32" y="15" width="4" height="1" fill="#294a91" shape-rendering="crispEdges"/><rect x="40" y="15" width="1" height="1" fill="#294a91" shape-rendering="crispEdges"/><rect x="49" y="15" width="1" height="7" fill="#294a91" shape-rendering="crispEdges"/><rect x="57" y="15" width="1" height="1" fill="#294a91" shape-rendering="crispEdges"/><rect x="20" y="16" width="4" height="5" fill="#294a91" shape-rendering="crispEdges"/><rect x="33" y="16" width="1" height="2" fill="#294a91" shape-rendering="crispEdges"/><rect x="36" y="16" width="4" height="5" fill="#294a91" shape-rendering="crispEdges"/><rect x="52" y="16" width="6" height="2" fill="#294a91" shape-rendering="crispEdges"/><rect x="32" y="18" width="2" height="3" fill="#294a91" shape-rendering="crispEdges"/><rect x="56" y="18" width="2" height="1" fill="#294a91" shape-rendering="crispEdges"/><rect x="52" y="19" width="6" height="2" fill="#294a91" shape-rendering="crispEdges"/><rect x="33" y="21" width="3" height="1" fill="#294a91" shape-rendering="crispEdges"/><rect x="40" y="21" width="1" height="1" fill="#294a91" shape-rendering="crispEdges"/><rect x="57" y="21" width="1" height="1" fill="#294a91" shape-rendering="crispEdges"/><rect x="15" y="22" width="9" height="1" fill="#294a91" shape-rendering="crispEdges"/><rect x="32" y="22" width="9" height="1" fill="#294a91" shape-rendering="crispEdges"/><rect x="49" y="22" width="9" height="1" fill="#294a91" shape-rendering="crispEdges"/><rect x="9" y="24" width="3" height="1" fill="#294a91" shape-rendering="crispEdges"/><rect x="23" y="24" width="3" height="3" fill="#294a91" shape-rendering="crispEdges"/><rect x="37" y="24" width="3" height="4" fill="#294a91" shape-rendering="crispEdges"/><rect x="50" y="24" width="3" height="3" fill="#294a91" shape-rendering="crispEdges"/><rect x="9" y="25" width="1" height="4" fill="#294a91" shape-rendering="crispEdges"/><rect x="23" y="27" width="1" height="4" fill="#294a91" shape-rendering="crispEdges"/><rect x="50" y="27" width="1" height="4" fill="#294a91" shape-rendering="crispEdges"/><rect x="37" y="28" width="1" height="4" fill="#294a91" shape-rendering="crispEdges"/><rect x="9" y="29" width="3" height="4" fill="#294a91" shape-rendering="crispEdges"/><rect x="23" y="31" width="3" height="2" fill="#294a91" shape-rendering="crispEdges"/><rect x="50" y="31" width="3" height="2" fill="#294a91" shape-rendering="crispEdges"/><rect x="37" y="32" width="3" height="1" fill="#294a91" shape-rendering="crispEdges"/><rect x="16" y="5" width="5" height="1" fill="#f34470" shape-rendering="crispEdges"/><rect x="24" y="5" width="4" height="1" fill="#f34470" shape-rendering="crispEdges"/><rect x="32" y="5" width="5" height="1" fill="#f34470" shape-rendering="crispEdges"/><rect x="38" y="5" width="7" height="1" fill="#f34470" shape-rendering="crispEdges"/><rect x="48" y="5" width="4" height="1" fill="#f34470" shape-rendering="crispEdges"/><rect x="54" y="5" width="2" height="7" fill="#f34470" shape-rendering="crispEdges"/><rect x="14" y="6" width="2" height="2" fill="#f34470" shape-rendering="crispEdges"/><rect x="22" y="6" width="2" height="5" fill="#f34470" shape-rendering="crispEdges"/><rect x="28" y="6" width="1" height="5" fill="#f34470" shape-rendering="crispEdges"/><rect x="30" y="6" width="2" height="5" fill="#f34470" shape-rendering="crispEdges"/><rect x="41" y="6" width="2" height="6" fill="#f34470" shape-rendering="crispEdges"/><rect x="46" y="6" width="2" height="6" fill="#f34470" shape-rendering="crispEdges"/><rect x="52" y="6" width="1" height="6" fill="#f34470" shape-rendering="crispEdges"/><rect x="16" y="8" width="4" height="1" fill="#f34470" shape-rendering="crispEdges"/><rect x="48" y="8" width="4" height="1" fill="#f34470" shape-rendering="crispEdges"/><rect x="20" y="9" width="1" height="2" fill="#f34470" shape-rendering="crispEdges"/><rect x="14" y="11" width="6" height="1" fill="#f34470" shape-rendering="crispEdges"/><rect x="24" y="11" width="4" height="1" fill="#f34470" shape-rendering="crispEdges"/><rect x="32" y="11" width="5" height="1" fill="#f34470" shape-rendering="crispEdges"/><rect x="38" y="11" width="3" height="1" fill="#f34470" shape-rendering="crispEdges"/><rect x="43" y="11" width="2" height="1" fill="#f34470" shape-rendering="crispEdges"/><rect x="56" y="11" width="5" height="1" fill="#f34470" shape-rendering="crispEdges"/><rect x="18" y="15" width="2" height="7" fill="#f34470" shape-rendering="crispEdges"/><rect x="20" y="15" width="4" height="1" fill="#f34470" shape-rendering="crispEdges"/><rect x="26" y="15" width="2" height="7" fill="#f34470" shape-rendering="crispEdges"/><rect x="28" y="15" width="4" height="1" fill="#f34470" shape-rendering="crispEdges"/><rect x="36" y="15" width="4" height="1" fill="#f34470" shape-rendering="crispEdges"/><rect x="42" y="15" width="2" height="7" fill="#f34470" shape-rendering="crispEdges"/><rect x="48" y="15" width="1" height="7" fill="#f34470" shape-rendering="crispEdges"/><rect x="50" y="15" width="2" height="7" fill="#f34470" shape-rendering="crispEdges"/><rect x="52" y="15" width="5" height="1" fill="#f34470" shape-rendering="crispEdges"/><rect x="24" y="16" width="1" height="5" fill="#f34470" shape-rendering="crispEdges"/><rect x="32" y="16" width="1" height="2" fill="#f34470" shape-rendering="crispEdges"/><rect x="34" y="16" width="2" height="5" fill="#f34470" shape-rendering="crispEdges"/><rect x="40" y="16" width="1" height="5" fill="#f34470" shape-rendering="crispEdges"/><rect x="44" y="16" width="1" height="2" fill="#f34470" shape-rendering="crispEdges"/><rect x="28" y="18" width="4" height="1" fill="#f34470" shape-rendering="crispEdges"/><rect x="45" y="18" width="2" height="1" fill="#f34470" shape-rendering="crispEdges"/><rect x="52" y="18" width="4" height="1" fill="#f34470" shape-rendering="crispEdges"/><rect x="29" y="19" width="2" height="1" fill="#f34470" shape-rendering="crispEdges"/><rect x="47" y="19" width="1" height="2" fill="#f34470" shape-rendering="crispEdges"/><rect x="31" y="20" width="1" height="1" fill="#f34470" shape-rendering="crispEdges"/><rect x="20" y="21" width="4" height="1" fill="#f34470" shape-rendering="crispEdges"/><rect x="32" y="21" width="1" height="1" fill="#f34470" shape-rendering="crispEdges"/><rect x="36" y="21" width="4" height="1" fill="#f34470" shape-rendering="crispEdges"/><rect x="52" y="21" width="5" height="1" fill="#f34470" shape-rendering="crispEdges"/><rect x="3" y="5" width="2" height="2" fill="#5088a8" shape-rendering="crispEdges"/><rect x="65" y="11" width="3" height="2" fill="#5088a8" shape-rendering="crispEdges"/><rect x="3" y="15" width="2" height="2" fill="#5088a8" shape-rendering="crispEdges"/><rect x="10" y="25" width="2" height="4" fill="#5088a8" shape-rendering="crispEdges"/><rect x="24" y="27" width="2" height="4" fill="#5088a8" shape-rendering="crispEdges"/><rect x="51" y="27" width="2" height="4" fill="#5088a8" shape-rendering="crispEdges"/><rect x="38" y="28" width="2" height="4" fill="#5088a8" shape-rendering="crispEdges"/><rect x="2" y="18" width="1" height="2" fill="#36cbe0" shape-rendering="crispEdges"/><rect x="16" y="27" width="1" height="2" fill="#36cbe0" shape-rendering="crispEdges"/><rect x="28" y="29" width="1" height="2" fill="#36cbe0" shape-rendering="crispEdges"/><rect x="57" y="29" width="1" height="2" fill="#36cbe0" shape-rendering="crispEdges"/><rect x="43" y="30" width="1" height="2" fill="#36cbe0" shape-rendering="crispEdges"/><circle cx="24.5" cy="12.5" r="0.48" fill="#fff283"/><circle cx="15.5" cy="30.5" r="0.48" fill="#fff283"/><circle cx="31.5" cy="29.5" r="0.48" fill="#fff283"/><circle cx="22.5" cy="26.5" r="0.48" fill="#fff283"/><circle cx="14.5" cy="0.5" r="0.38" fill="#69eeff"/><circle cx="71.5" cy="7.5" r="0.38" fill="#69eeff"/><circle cx="9.5" cy="26.5" r="0.38" fill="#69eeff"/><circle cx="23.5" cy="28.5" r="0.38" fill="#69eeff"/><circle cx="37.5" cy="29.5" r="0.38" fill="#69eeff"/><circle cx="50.5" cy="28.5" r="0.38" fill="#69eeff"/><circle cx="3.5" cy="4.5" r="0.38" fill="#69eeff"/><circle cx="65.5" cy="10.5" r="0.38" fill="#69eeff"/><circle cx="3.5" cy="14.5" r="0.38" fill="#69eeff"/><path d="M36.5 34.9l.5.6-.5.5-.5-.5z" fill="#fff283"/></svg>