<svg xmlns="http://www.w3.org/2000/svg" viewBox="0 0 72 36"><rect width="72" height="36" fill="#030609"/><rect x=".5" y=".5" width="71" height="35" fill="none" stroke="#31536a" stroke-width=".12"/><rect x="1" y="1" width="15" height="1" fill="#31bddb"/><rect x="18" y="1" width="1" height="16" fill="#31bddb"/><rect x="21" y="1" width="13" height="1" fill="#31bddb"/><rect x="35" y="1" width="2" height="16" fill="#31bddb"/><rect x="38" y="1" width="14" height="1" fill="#31bddb"/><rect x="53" y="1" width="2" height="16" fill="#31bddb"/><rect x="56" y="1" width="15" height="1" fill="#31bddb"/><rect x="1" y="2" width="1" height="14" fill="#31bddb"/><rect x="70" y="2" width="1" height="14" fill="#31bddb"/><rect x="1" y="17" width="70" height="2" fill="#31bddb"/><rect x="18" y="19" width="1" height="16" fill="#31bddb"/><rect x="35" y="19" width="2" height="16" fill="#31bddb"/><rect x="53" y="19" width="2" height="16" fill="#31bddb"/><rect x="1" y="20" width="1" height="14" fill="#31bddb"/><rect x="70" y="20" width="1" height="14" fill="#31bddb"/><rect x="1" y="34" width="15" height="1" fill="#31bddb"/><rect x="21" y="34" width="13" height="1" fill="#31bddb"/><rect x="38" y="34" width="14" height="1" fill="#31bddb"/><rect x="56" y="34" width="15" height="1" fill="#31bddb"/><rect x="12" y="2" width="1" height="9" fill="#e02862"/><rect x="24" y="2" width="1" height="9" fill="#e02862"/><rect x="47" y="2" width="1" height="9" fill="#e02862"/><rect x="59" y="2" width="1" height="9" fill="#e02862"/><rect x="5" y="4" width="2" height="2" fill="#e02862"/><rect x="29" y="4" width="2" height="2" fill="#e02862"/><rect x="41" y="4" width="2" height="2" fill="#e02862"/><rect x="65" y="4" width="2" height="2" fill="#e02862"/><rect x="5" y="6" width="4" height="2" fill="#e02862"/><rect x="27" y="6" width="4" height="2" fill="#e02862"/><rect x="41" y="6" width="4" height="2" fill="#e02862"/><rect x="63" y="6" width="4" height="2" fill="#e02862"/><rect x="5" y="8" width="2" height="9" fill="#e02862"/><rect x="29" y="8" width="2" height="9" fill="#e02862"/><rect x="41" y="8" width="2" height="9" fill="#e02862"/><rect x="65" y="8" width="2" height="9" fill="#e02862"/><rect x="9" y="11" width="4" height="2" fill="#e02862"/><rect x="24" y="11" width="4" height="2" fill="#e02862"/><rect x="44" y="11" width="4" height="2" fill="#e02862"/><rect x="59" y="11" width="4" height="2" fill="#e02862"/><rect x="12" y="13" width="1" height="2" fill="#e02862"/><rect x="24" y="13" width="1" height="2" fill="#e02862"/><rect x="47" y="13" width="1" height="2" fill="#e02862"/><rect x="59" y="13" width="1" height="2" fill="#e02862"/><rect x="5" y="19" width="2" height="9" fill="#e02862"/><rect x="29" y="19" width="2" height="9" fill="#e02862"/><rect x="41" y="19" width="2" height="9" fill="#e02862"/><rect x="65" y="19" width="2" height="9" fill="#e02862"/><rect x="12" y="21" width="1" height="2" fill="#e02862"/><rect x="24" y="21" width="1" height="2" fill="#e02862"/><rect x="47" y="21" width="1" height="2" fill="#e02862"/><rect x="59" y="21" width="1" height="2" fill="#e02862"/><rect x="9" y="23" width="4" height="2" fill="#e02862"/><rect x="24" y="23" width="4" height="2" fill="#e02862"/><rect x="44" y="23" width="4" height="2" fill="#e02862"/><rect x="59" y="23" width="4" height="2" fill="#e02862"/><rect x="12" y="25" width="1" height="9" fill="#e02862"/><rect x="24" y="25" width="1" height="9" fill="#e02862"/><rect x="47" y="25" width="1" height="9" fill="#e02862"/><rect x="59" y="25" width="1" height="9" fill="#e02862"/><rect x="5" y="28" width="4" height="2" fill="#e02862"/><rect x="27" y="28" width="4" height="2" fill="#e02862"/><rect x="41" y="28" width="4" height="2" fill="#e02862"/><rect x="63" y="28" width="4" height="2" fill="#e02862"/><rect x="5" y="30" width="2" height="2" fill="#e02862"/><rect x="29" y="30" width="2" height="2" fill="#e02862"/><rect x="41" y="30" width="2" height="2" fill="#e02862"/><rect x="65" y="30" width="2" height="2" fill="#e02862"/><rect x="5" y="2" width="7" height="2" fill="#4260dc"/><rect x="25" y="2" width="6" height="2" fill="#4260dc"/><rect x="41" y="2" width="6" height="2" fill="#4260dc"/><rect x="60" y="2" width="7" height="2" fill="#4260dc"/><rect x="7" y="4" width="5" height="2" fill="#4260dc"/><rect x="25" y="4" width="4" height="2" fill="#4260dc"/><rect x="43" y="4" width="4" height="2" fill="#4260dc"/><rect x="60" y="4" width="5" height="2" fill="#4260dc"/><rect x="9" y="6" width="3" height="2" fill="#4260dc"/><rect x="25" y="6" width="2" height="2" fill="#4260dc"/><rect x="45" y="6" width="2" height="2" fill="#4260dc"/><rect x="60" y="6" width="3" height="2" fill="#4260dc"/><rect x="7" y="8" width="5" height="3" fill="#4260dc"/><rect x="25" y="8" width="4" height="3" fill="#4260dc"/><rect x="43" y="8" width="4" height="3" fill="#4260dc"/><rect x="60" y="8" width="5" height="3" fill="#4260dc"/><rect x="7" y="11" width="2" height="2" fill="#4260dc"/><rect x="28" y="11" width="1" height="2" fill="#4260dc"/><rect x="43" y="11" width="1" height="2" fill="#4260dc"/><rect x="63" y="11" width="2" height="2" fill="#4260dc"/><rect x="7" y="13" width="5" height="2" fill="#4260dc"/><rect x="25" y="13" width="4" height="2" fill="#4260dc"/><rect x="43" y="13" width="4" height="2" fill="#4260dc"/><rect x="60" y="13" width="5" height="2" fill="#4260dc"/><rect x="7" y="15" width="6" height="2" fill="#4260dc"/><rect x="24" y="15" width="5" height="2" fill="#4260dc"/><rect x="43" y="15" width="5" height="2" fill="#4260dc"/><rect x="59" y="15" width="6" height="2" fill="#4260dc"/><rect x="7" y="19" width="6" height="2" fill="#4260dc"/><rect x="24" y="19" width="5" height="2" fill="#4260dc"/><rect x="43" y="19" width="5" height="2" fill="#4260dc"/><rect x="59" y="19" width="6" height="2" fill="#4260dc"/><rect x="7" y="21" width="5" height="2" fill="#4260dc"/><rect x="25" y="21" width="4" height="2" fill="#4260dc"/><rect x="43" y="21" width="4" height="2" fill="#4260dc"/><rect x="60" y="21" width="5" height="2" fill="#4260dc"/><rect x="7" y="23" width="2" height="2" fill="#4260dc"/><rect x="28" y="23" width="1" height="2" fill="#4260dc"/><rect x="43" y="23" width="1" height="2" fill="#4260dc"/><rect x="63" y="23" width="2" height="2" fill="#4260dc"/><rect x="7" y="25" width="5" height="3" fill="#4260dc"/><rect x="25" y="25" width="4" height="3" fill="#4260dc"/><rect x="43" y="25" width="4" height="3" fill="#4260dc"/><rect x="60" y="25" width="5" height="3" fill="#4260dc"/><rect x="9" y="28" width="3" height="2" fill="#4260dc"/><rect x="25" y="28" width="2" height="2" fill="#4260dc"/><rect x="45" y="28" width="2" height="2" fill="#4260dc"/><rect x="60" y="28" width="3" height="2" fill="#4260dc"/><rect x="7" y="30" width="5" height="2" fill="#4260dc"/><rect x="25" y="30" width="4" height="2" fill="#4260dc"/><rect x="43" y="30" width="4" height="2" fill="#4260dc"/><rect x="60" y="30" width="5" height="2" fill="#4260dc"/><rect x="5" y="32" width="7" height="2" fill="#4260dc"/><rect x="25" y="32" width="6" height="2" fill="#4260dc"/><rect x="41" y="32" width="6" height="2" fill="#4260dc"/><rect x="60" y="32" width="7" height="2" fill="#4260dc"/><circle cx="2.8850336613153806" cy="15.80248190279214" r=".50" fill="#f4e060"/><circle cx="16.00776799585707" cy="32.6794208893485" r=".50" fill="#f4e060"/><circle cx="64.07612635939927" cy="16.47052740434333" r=".50" fill="#f4e060"/><circle cx="64.47488348006215" cy="19.459152016546017" r=".50" fill="#f4e060"/><path d="M16.903210771620923 35.5h.8m-.4-.4v.8" stroke="#47e4ef" stroke-width=".25"/><path d="M54.26002071465562 35.5h.8m-.4-.4v.8" stroke="#47e4ef" stroke-width=".25"/><circle cx="36.5" cy="35.5" r=".3" fill="#f9e75a"/></svg>