<svg xmlns="http://www.w3.org/2000/svg" viewBox="0 0 72 36"><rect width="72" height="36" fill="#030609"/><rect x=".5" y=".5" width="71" height="35" fill="none" stroke="#31536a" stroke-width=".12"/><rect x="3" y="3" width="22" height="3" fill="#e02862"/><rect x="28" y="3" width="16" height="3" fill="#e02862"/><rect x="47" y="3" width="22" height="3" fill="#e02862"/><rect x="3" y="6" width="3" height="11" fill="#e02862"/><rect x="34" y="6" width="4" height="11" fill="#e02862"/><rect x="66" y="6" width="3" height="11" fill="#e02862"/><rect x="8" y="8" width="13" height="3" fill="#e02862"/><rect x="23" y="8" width="9" height="3" fill="#e02862"/><rect x="40" y="8" width="2" height="17" fill="#e02862"/><rect x="44" y="8" width="5" height="3" fill="#e02862"/><rect x="51" y="8" width="13" height="3" fill="#e02862"/><rect x="8" y="11" width="3" height="10" fill="#e02862"/><rect x="30" y="11" width="2" height="17" fill="#e02862"/><rect x="44" y="11" width="3" height="10" fill="#e02862"/><rect x="61" y="11" width="3" height="2" fill="#e02862"/><rect x="13" y="13" width="3" height="8" fill="#e02862"/><rect x="18" y="13" width="10" height="2" fill="#e02862"/><rect x="49" y="13" width="10" height="2" fill="#e02862"/><rect x="25" y="15" width="3" height="10" fill="#e02862"/><rect x="49" y="15" width="2" height="4" fill="#e02862"/><rect x="56" y="15" width="3" height="8" fill="#e02862"/><rect x="61" y="15" width="3" height="10" fill="#e02862"/><rect x="21" y="17" width="2" height="4" fill="#e02862"/><rect x="3" y="19" width="3" height="11" fill="#e02862"/><rect x="34" y="19" width="4" height="11" fill="#e02862"/><rect x="66" y="19" width="3" height="11" fill="#e02862"/><rect x="13" y="21" width="10" height="2" fill="#e02862"/><rect x="44" y="21" width="10" height="2" fill="#e02862"/><rect x="8" y="23" width="3" height="2" fill="#e02862"/><rect x="8" y="25" width="13" height="3" fill="#e02862"/><rect x="23" y="25" width="5" height="3" fill="#e02862"/><rect x="40" y="25" width="9" height="3" fill="#e02862"/><rect x="51" y="25" width="13" height="3" fill="#e02862"/><rect x="3" y="30" width="22" height="3" fill="#e02862"/><rect x="28" y="30" width="16" height="3" fill="#e02862"/><rect x="47" y="30" width="22" height="3" fill="#e02862"/><circle cx="9.250259605399792" cy="3.680497925311203" r=".85" fill="none" stroke="#f58bb6" stroke-width=".2"/><circle cx="9.250259605399792" cy="3.680497925311203" r=".50" fill="#f58bb6"/><circle cx="56.78920041536864" cy="17.11825726141079" r=".85" fill="none" stroke="#f58bb6" stroke-width=".2"/><circle cx="56.78920041536864" cy="17.11825726141079" r=".50" fill="#f58bb6"/><circle cx="57.188992731048806" cy="19.410788381742737" r=".85" fill="none" stroke="#f58bb6" stroke-width=".2"/><circle cx="57.188992731048806" cy="19.410788381742737" r=".50" fill="#f58bb6"/><circle cx="33.85565939771547" cy="30.80290456431535" r=".85" fill="none" stroke="#f58bb6" stroke-width=".2"/><circle cx="33.85565939771547" cy="30.80290456431535" r=".50" fill="#f58bb6"/><path d="M0.09999999999999998 22.25h.8m-.4-.4v.8" stroke="#47e4ef" stroke-width=".25"/><path d="M71.1 22.25h.8m-.4-.4v.8" stroke="#47e4ef" stroke-width=".25"/><circle cx="36.5" cy="35.5" r=".3" fill="#f9e75a"/></svg>