<svg xmlns="http://www.w3.org/2000/svg" viewBox="0 0 72 36"><rect width="72" height="36" fill="#030609"/><rect x=".5" y=".5" width="71" height="35" fill="none" stroke="#31536a" stroke-width=".12"/><rect x="17" y="3" width="2" height="6" fill="#31bddb"/><rect x="35" y="3" width="2" height="6" fill="#31bddb"/><rect x="53" y="3" width="2" height="6" fill="#31bddb"/><rect x="8" y="7" width="2" height="2" fill="#31bddb"/><rect x="26" y="7" width="2" height="2" fill="#31bddb"/><rect x="44" y="7" width="2" height="2" fill="#31bddb"/><rect x="62" y="7" width="2" height="2" fill="#31bddb"/><rect x="7" y="9" width="5" height="1" fill="#31bddb"/><rect x="25" y="9" width="5" height="1" fill="#31bddb"/><rect x="42" y="9" width="5" height="1" fill="#31bddb"/><rect x="60" y="9" width="5" height="1" fill="#31bddb"/><rect x="8" y="10" width="2" height="2" fill="#31bddb"/><rect x="17" y="10" width="2" height="6" fill="#31bddb"/><rect x="26" y="10" width="2" height="2" fill="#31bddb"/><rect x="35" y="10" width="2" height="6" fill="#31bddb"/><rect x="44" y="10" width="2" height="2" fill="#31bddb"/><rect x="53" y="10" width="2" height="6" fill="#31bddb"/><rect x="62" y="10" width="2" height="2" fill="#31bddb"/><rect x="3" y="17" width="5" height="2" fill="#31bddb"/><rect x="10" y="17" width="6" height="2" fill="#31bddb"/><rect x="20" y="17" width="6" height="2" fill="#31bddb"/><rect x="28" y="17" width="6" height="2" fill="#31bddb"/><rect x="38" y="17" width="6" height="2" fill="#31bddb"/><rect x="46" y="17" width="6" height="2" fill="#31bddb"/><rect x="56" y="17" width="6" height="2" fill="#31bddb"/><rect x="64" y="17" width="5" height="2" fill="#31bddb"/><rect x="17" y="20" width="2" height="6" fill="#31bddb"/><rect x="35" y="20" width="2" height="6" fill="#31bddb"/><rect x="53" y="20" width="2" height="6" fill="#31bddb"/><rect x="8" y="24" width="2" height="2" fill="#31bddb"/><rect x="26" y="24" width="2" height="2" fill="#31bddb"/><rect x="44" y="24" width="2" height="2" fill="#31bddb"/><rect x="62" y="24" width="2" height="2" fill="#31bddb"/><rect x="7" y="26" width="5" height="1" fill="#31bddb"/><rect x="25" y="26" width="5" height="1" fill="#31bddb"/><rect x="42" y="26" width="5" height="1" fill="#31bddb"/><rect x="60" y="26" width="5" height="1" fill="#31bddb"/><rect x="8" y="27" width="2" height="2" fill="#31bddb"/><rect x="17" y="27" width="2" height="6" fill="#31bddb"/><rect x="26" y="27" width="2" height="2" fill="#31bddb"/><rect x="35" y="27" width="2" height="6" fill="#31bddb"/><rect x="44" y="27" width="2" height="2" fill="#31bddb"/><rect x="53" y="27" width="2" height="6" fill="#31bddb"/><rect x="62" y="27" width="2" height="2" fill="#31bddb"/><rect x="2" y="2" width="6" height="3" fill="#e02862"/><rect x="28" y="2" width="6" height="1" fill="#e02862"/><rect x="38" y="2" width="6" height="1" fill="#e02862"/><rect x="64" y="2" width="6" height="3" fill="#e02862"/><rect x="28" y="3" width="7" height="2" fill="#e02862"/><rect x="37" y="3" width="7" height="2" fill="#e02862"/><rect x="11" y="4" width="4" height="3" fill="#e02862"/><rect x="21" y="4" width="4" height="3" fill="#e02862"/><rect x="47" y="4" width="4" height="3" fill="#e02862"/><rect x="57" y="4" width="4" height="3" fill="#e02862"/><rect x="2" y="5" width="2" height="4" fill="#e02862"/><rect x="32" y="5" width="3" height="4" fill="#e02862"/><rect x="37" y="5" width="3" height="4" fill="#e02862"/><rect x="68" y="5" width="2" height="4" fill="#e02862"/><rect x="7" y="7" width="1" height="2" fill="#e02862"/><rect x="28" y="7" width="2" height="2" fill="#e02862"/><rect x="42" y="7" width="2" height="2" fill="#e02862"/><rect x="64" y="7" width="1" height="2" fill="#e02862"/><rect x="10" y="10" width="2" height="2" fill="#e02862"/><rect x="14" y="10" width="3" height="2" fill="#e02862"/><rect x="19" y="10" width="3" height="4" fill="#e02862"/><rect x="25" y="10" width="1" height="2" fill="#e02862"/><rect x="46" y="10" width="1" height="2" fill="#e02862"/><rect x="49" y="10" width="4" height="3" fill="#e02862"/><rect x="55" y="10" width="3" height="2" fill="#e02862"/><rect x="60" y="10" width="2" height="2" fill="#e02862"/><rect x="3" y="12" width="4" height="3" fill="#e02862"/><rect x="16" y="12" width="1" height="4" fill="#e02862"/><rect x="29" y="12" width="4" height="3" fill="#e02862"/><rect x="39" y="12" width="4" height="3" fill="#e02862"/><rect x="55" y="12" width="1" height="4" fill="#e02862"/><rect x="65" y="12" width="4" height="3" fill="#e02862"/><rect x="46" y="13" width="7" height="3" fill="#e02862"/><rect x="10" y="14" width="4" height="3" fill="#e02862"/><rect x="19" y="14" width="7" height="2" fill="#e02862"/><rect x="58" y="14" width="4" height="3" fill="#e02862"/><rect x="20" y="16" width="6" height="1" fill="#e02862"/><rect x="46" y="16" width="6" height="1" fill="#e02862"/><rect x="17" y="17" width="2" height="2" fill="#e02862"/><rect x="35" y="17" width="2" height="2" fill="#e02862"/><rect x="53" y="17" width="2" height="2" fill="#e02862"/><rect x="10" y="19" width="6" height="1" fill="#e02862"/><rect x="22" y="19" width="4" height="3" fill="#e02862"/><rect x="46" y="19" width="4" height="3" fill="#e02862"/><rect x="56" y="19" width="6" height="1" fill="#e02862"/><rect x="10" y="20" width="7" height="2" fill="#e02862"/><rect x="19" y="20" width="2" height="3" fill="#e02862"/><rect x="51" y="20" width="2" height="4" fill="#e02862"/><rect x="55" y="20" width="7" height="3" fill="#e02862"/><rect x="3" y="21" width="4" height="3" fill="#e02862"/><rect x="29" y="21" width="4" height="3" fill="#e02862"/><rect x="39" y="21" width="4" height="3" fill="#e02862"/><rect x="65" y="21" width="4" height="3" fill="#e02862"/><rect x="14" y="22" width="3" height="4" fill="#e02862"/><rect x="19" y="23" width="3" height="3" fill="#e02862"/><rect x="55" y="23" width="4" height="3" fill="#e02862"/><rect x="10" y="24" width="2" height="2" fill="#e02862"/><rect x="25" y="24" width="1" height="2" fill="#e02862"/><rect x="46" y="24" width="1" height="2" fill="#e02862"/><rect x="50" y="24" width="3" height="2" fill="#e02862"/><rect x="60" y="24" width="2" height="2" fill="#e02862"/><rect x="2" y="27" width="2" height="4" fill="#e02862"/><rect x="7" y="27" width="1" height="2" fill="#e02862"/><rect x="28" y="27" width="2" height="2" fill="#e02862"/><rect x="32" y="27" width="3" height="4" fill="#e02862"/><rect x="37" y="27" width="3" height="4" fill="#e02862"/><rect x="42" y="27" width="2" height="2" fill="#e02862"/><rect x="64" y="27" width="1" height="2" fill="#e02862"/><rect x="68" y="27" width="2" height="4" fill="#e02862"/><rect x="11" y="29" width="4" height="3" fill="#e02862"/><rect x="21" y="29" width="4" height="3" fill="#e02862"/><rect x="47" y="29" width="4" height="3" fill="#e02862"/><rect x="57" y="29" width="4" height="3" fill="#e02862"/><rect x="2" y="31" width="6" height="3" fill="#e02862"/><rect x="28" y="31" width="7" height="2" fill="#e02862"/><rect x="37" y="31" width="7" height="2" fill="#e02862"/><rect x="64" y="31" width="6" height="3" fill="#e02862"/><rect x="28" y="33" width="6" height="1" fill="#e02862"/><rect x="38" y="33" width="6" height="1" fill="#e02862"/><circle cx="33.1856449001619" cy="7.628029504741834" r=".48" fill="#f6ed7e"/><circle cx="40.81651376146789" cy="12.715489989462592" r=".48" fill="#f6ed7e"/><circle cx="47.72962763086886" cy="12.894625922023183" r=".48" fill="#f6ed7e"/><circle cx="20.417161359956825" cy="22.926238145416228" r=".48" fill="#f6ed7e"/><circle cx="23.590393955747437" cy="24.108535300316124" r=".48" fill="#f6ed7e"/><circle cx="52.603912574203996" cy="27.118018967334034" r=".48" fill="#f6ed7e"/><path d="M18.3 0.5h.8m-.4-.4v.8" stroke="#47e4ef" stroke-width=".25"/><path d="M51.03 0.5h.8m-.4-.4v.8" stroke="#47e4ef" stroke-width=".25"/><path d="M0.09999999999999998 17.56h.8m-.4-.4v.8" stroke="#47e4ef" stroke-width=".25"/><circle cx="36.5" cy="35.5" r=".3" fill="#f9e75a"/></svg>