<svg xmlns="http://www.w3.org/2000/svg" viewBox="0 0 72 36" width="720" height="360"><rect width="72" height="36" fill="#050911"/><rect x=".5" y=".5" width="71" height="35" fill="none" stroke="#397598" stroke-width=".16"/><rect x="5" y="25" width="13" height="3" fill="#294a91" shape-rendering="crispEdges"/><rect x="5" y="28" width="2" height="3" fill="#294a91" shape-rendering="crispEdges"/><rect x="5" y="32" width="20" height="1" fill="#294a91" shape-rendering="crispEdges"/><rect x="6" y="31" width="19" height="1" fill="#294a91" shape-rendering="crispEdges"/><rect x="7" y="4" width="12" height="19" fill="#294a91" shape-rendering="crispEdges"/><rect x="9" y="28" width="16" height="1" fill="#294a91" shape-rendering="crispEdges"/><rect x="12" y="29" width="13" height="2" fill="#294a91" shape-rendering="crispEdges"/><rect x="20" y="25" width="5" height="1" fill="#294a91" shape-rendering="crispEdges"/><rect x="21" y="26" width="4" height="2" fill="#294a91" shape-rendering="crispEdges"/><rect x="26" y="12" width="1" height="7" fill="#294a91" shape-rendering="crispEdges"/><rect x="27" y="8" width="1" height="2" fill="#294a91" shape-rendering="crispEdges"/><rect x="27" y="14" width="1" height="5" fill="#294a91" shape-rendering="crispEdges"/><rect x="28" y="9" width="2" height="2" fill="#294a91" shape-rendering="crispEdges"/><rect x="28" y="15" width="1" height="4" fill="#294a91" shape-rendering="crispEdges"/><rect x="29" y="11" width="5" height="2" fill="#294a91" shape-rendering="crispEdges"/><rect x="29" y="16" width="2" height="3" fill="#294a91" shape-rendering="crispEdges"/><rect x="30" y="10" width="2" height="1" fill="#294a91" shape-rendering="crispEdges"/><rect x="30" y="13" width="13" height="1" fill="#294a91" shape-rendering="crispEdges"/><rect x="30" y="25" width="2" height="3" fill="#294a91" shape-rendering="crispEdges"/><rect x="30" y="29" width="13" height="4" fill="#294a91" shape-rendering="crispEdges"/><rect x="31" y="17" width="1" height="1" fill="#294a91" shape-rendering="crispEdges"/><rect x="31" y="28" width="20" height="1" fill="#294a91" shape-rendering="crispEdges"/><rect x="32" y="14" width="9" height="1" fill="#294a91" shape-rendering="crispEdges"/><rect x="33" y="8" width="1" height="1" fill="#294a91" shape-rendering="crispEdges"/><rect x="34" y="12" width="10" height="1" fill="#294a91" shape-rendering="crispEdges"/><rect x="34" y="15" width="5" height="1" fill="#294a91" shape-rendering="crispEdges"/><rect x="34" y="18" width="4" height="1" fill="#294a91" shape-rendering="crispEdges"/><rect x="34" y="25" width="17" height="1" fill="#294a91" shape-rendering="crispEdges"/><rect x="35" y="16" width="2" height="2" fill="#294a91" shape-rendering="crispEdges"/><rect x="37" y="26" width="14" height="2" fill="#294a91" shape-rendering="crispEdges"/><rect x="38" y="8" width="1" height="1" fill="#294a91" shape-rendering="crispEdges"/><rect x="38" y="11" width="6" height="1" fill="#294a91" shape-rendering="crispEdges"/><rect x="40" y="10" width="5" height="1" fill="#294a91" shape-rendering="crispEdges"/><rect x="40" y="17" width="6" height="1" fill="#294a91" shape-rendering="crispEdges"/><rect x="41" y="18" width="5" height="1" fill="#294a91" shape-rendering="crispEdges"/><rect x="42" y="9" width="3" height="1" fill="#294a91" shape-rendering="crispEdges"/><rect x="42" y="16" width="4" height="1" fill="#294a91" shape-rendering="crispEdges"/><rect x="43" y="32" width="8" height="1" fill="#294a91" shape-rendering="crispEdges"/><rect x="44" y="8" width="2" height="1" fill="#294a91" shape-rendering="crispEdges"/><rect x="44" y="15" width="2" height="1" fill="#294a91" shape-rendering="crispEdges"/><rect x="45" y="14" width="1" height="1" fill="#294a91" shape-rendering="crispEdges"/><rect x="45" y="29" width="6" height="1" fill="#294a91" shape-rendering="crispEdges"/><rect x="47" y="30" width="4" height="2" fill="#294a91" shape-rendering="crispEdges"/><rect x="53" y="4" width="12" height="19" fill="#294a91" shape-rendering="crispEdges"/><rect x="53" y="25" width="9" height="4" fill="#294a91" shape-rendering="crispEdges"/><rect x="53" y="29" width="2" height="3" fill="#294a91" shape-rendering="crispEdges"/><rect x="54" y="32" width="8" height="1" fill="#294a91" shape-rendering="crispEdges"/><rect x="57" y="29" width="5" height="1" fill="#294a91" shape-rendering="crispEdges"/><rect x="58" y="30" width="4" height="2" fill="#294a91" shape-rendering="crispEdges"/><rect x="22" y="4" width="3" height="1" fill="#f34470" shape-rendering="crispEdges"/><rect x="47" y="4" width="3" height="1" fill="#f34470" shape-rendering="crispEdges"/><rect x="22" y="5" width="5" height="1" fill="#f34470" shape-rendering="crispEdges"/><rect x="45" y="5" width="5" height="1" fill="#f34470" shape-rendering="crispEdges"/><rect x="23" y="6" width="6" height="1" fill="#f34470" shape-rendering="crispEdges"/><rect x="43" y="6" width="6" height="1" fill="#f34470" shape-rendering="crispEdges"/><rect x="23" y="7" width="8" height="1" fill="#f34470" shape-rendering="crispEdges"/><rect x="34" y="7" width="3" height="1" fill="#f34470" shape-rendering="crispEdges"/><rect x="41" y="7" width="8" height="1" fill="#f34470" shape-rendering="crispEdges"/><rect x="24" y="8" width="3" height="1" fill="#f34470" shape-rendering="crispEdges"/><rect x="28" y="8" width="5" height="1" fill="#f34470" shape-rendering="crispEdges"/><rect x="34" y="8" width="4" height="1" fill="#f34470" shape-rendering="crispEdges"/><rect x="39" y="8" width="5" height="1" fill="#f34470" shape-rendering="crispEdges"/><rect x="46" y="8" width="2" height="1" fill="#f34470" shape-rendering="crispEdges"/><rect x="25" y="9" width="2" height="1" fill="#f34470" shape-rendering="crispEdges"/><rect x="30" y="9" width="12" height="1" fill="#f34470" shape-rendering="crispEdges"/><rect x="45" y="9" width="3" height="1" fill="#f34470" shape-rendering="crispEdges"/><rect x="25" y="10" width="3" height="1" fill="#f34470" shape-rendering="crispEdges"/><rect x="32" y="10" width="8" height="1" fill="#f34470" shape-rendering="crispEdges"/><rect x="45" y="10" width="2" height="1" fill="#f34470" shape-rendering="crispEdges"/><rect x="26" y="11" width="3" height="1" fill="#f34470" shape-rendering="crispEdges"/><rect x="34" y="11" width="4" height="1" fill="#f34470" shape-rendering="crispEdges"/><rect x="44" y="11" width="3" height="1" fill="#f34470" shape-rendering="crispEdges"/><rect x="27" y="12" width="2" height="1" fill="#f34470" shape-rendering="crispEdges"/><rect x="44" y="12" width="2" height="1" fill="#f34470" shape-rendering="crispEdges"/><rect x="27" y="13" width="3" height="1" fill="#f34470" shape-rendering="crispEdges"/><rect x="43" y="13" width="3" height="1" fill="#f34470" shape-rendering="crispEdges"/><rect x="28" y="14" width="4" height="1" fill="#f34470" shape-rendering="crispEdges"/><rect x="41" y="14" width="4" height="1" fill="#f34470" shape-rendering="crispEdges"/><rect x="29" y="15" width="5" height="1" fill="#f34470" shape-rendering="crispEdges"/><rect x="39" y="15" width="5" height="1" fill="#f34470" shape-rendering="crispEdges"/><rect x="31" y="16" width="4" height="1" fill="#f34470" shape-rendering="crispEdges"/><rect x="37" y="16" width="5" height="1" fill="#f34470" shape-rendering="crispEdges"/><rect x="32" y="17" width="3" height="1" fill="#f34470" shape-rendering="crispEdges"/><rect x="37" y="17" width="3" height="1" fill="#f34470" shape-rendering="crispEdges"/><rect x="31" y="18" width="3" height="1" fill="#f34470" shape-rendering="crispEdges"/><rect x="38" y="18" width="3" height="1" fill="#f34470" shape-rendering="crispEdges"/><rect x="30" y="19" width="3" height="1" fill="#f34470" shape-rendering="crispEdges"/><rect x="35" y="19" width="2" height="1" fill="#f34470" shape-rendering="crispEdges"/><rect x="39" y="19" width="3" height="1" fill="#f34470" shape-rendering="crispEdges"/><rect x="30" y="20" width="2" height="1" fill="#f34470" shape-rendering="crispEdges"/><rect x="33" y="20" width="6" height="1" fill="#f34470" shape-rendering="crispEdges"/><rect x="40" y="20" width="2" height="1" fill="#f34470" shape-rendering="crispEdges"/><rect x="29" y="21" width="14" height="1" fill="#f34470" shape-rendering="crispEdges"/><rect x="28" y="22" width="6" height="1" fill="#f34470" shape-rendering="crispEdges"/><rect x="38" y="22" width="6" height="1" fill="#f34470" shape-rendering="crispEdges"/><rect x="27" y="23" width="5" height="1" fill="#f34470" shape-rendering="crispEdges"/><rect x="40" y="23" width="5" height="1" fill="#f34470" shape-rendering="crispEdges"/><rect x="30" y="28" width="1" height="1" fill="#f34470" shape-rendering="crispEdges"/><rect x="5" y="31" width="1" height="1" fill="#f34470" shape-rendering="crispEdges"/><rect x="53" y="32" width="1" height="1" fill="#f34470" shape-rendering="crispEdges"/><rect x="65" y="6" width="3" height="2" fill="#5088a8" shape-rendering="crispEdges"/><rect x="3" y="10" width="3" height="2" fill="#5088a8" shape-rendering="crispEdges"/><rect x="65" y="16" width="3" height="2" fill="#5088a8" shape-rendering="crispEdges"/><rect x="18" y="25" width="2" height="1" fill="#5088a8" shape-rendering="crispEdges"/><rect x="32" y="25" width="2" height="1" fill="#5088a8" shape-rendering="crispEdges"/><rect x="18" y="26" width="3" height="2" fill="#5088a8" shape-rendering="crispEdges"/><rect x="32" y="26" width="5" height="2" fill="#5088a8" shape-rendering="crispEdges"/><rect x="7" y="28" width="2" height="1" fill="#5088a8" shape-rendering="crispEdges"/><rect x="7" y="29" width="5" height="2" fill="#5088a8" shape-rendering="crispEdges"/><rect x="43" y="29" width="2" height="1" fill="#5088a8" shape-rendering="crispEdges"/><rect x="55" y="29" width="2" height="1" fill="#5088a8" shape-rendering="crispEdges"/><rect x="43" y="30" width="4" height="2" fill="#5088a8" shape-rendering="crispEdges"/><rect x="55" y="30" width="3" height="2" fill="#5088a8" shape-rendering="crispEdges"/><rect x="69" y="19" width="1" height="2" fill="#36cbe0" shape-rendering="crispEdges"/><circle cx="19.5" cy="14.5" r="0.48" fill="#fff283"/><circle cx="13.5" cy="15.5" r="0.48" fill="#fff283"/><circle cx="65.5" cy="28.5" r="0.48" fill="#fff283"/><circle cx="22.5" cy="22.5" r="0.48" fill="#fff283"/><circle cx="41.5" cy="0.5" r="0.38" fill="#69eeff"/><circle cx="71.5" cy="11.5" r="0.38" fill="#69eeff"/><circle cx="6.5" cy="29.5" r="0.38" fill="#69eeff"/><circle cx="17.5" cy="26.5" r="0.38" fill="#69eeff"/><circle cx="31.5" cy="26.5" r="0.38" fill="#69eeff"/><circle cx="42.5" cy="30.5" r="0.38" fill="#69eeff"/><circle cx="54.5" cy="30.5" r="0.38" fill="#69eeff"/><circle cx="65.5" cy="5.5" r="0.38" fill="#69eeff"/><circle cx="3.5" cy="9.5" r="0.38" fill="#69eeff"/><circle cx="65.5" cy="15.5" r="0.38" fill="#69eeff"/><path d="M36.5 34.9l.5.6-.5.5-.5-.5z" fill="#fff283"/></svg>